<?xml version="1.0" standalone="no"?>
<!DOCTYPE svg PUBLIC "-//W3C//DTD SVG 20010904//EN"
 "http://www.w3.org/TR/2001/REC-SVG-20010904/DTD/svg10.dtd">
<svg version="1.0" xmlns="http://www.w3.org/2000/svg"
 width="512.000000pt" height="512.000000pt" viewBox="0 0 512.000000 512.000000"
 preserveAspectRatio="xMidYMid meet">

<g transform="translate(0.000000,512.000000) scale(0.100000,-0.100000)"
fill="#000000" stroke="none">
<path d="M2467 3702 c-15 -2 -235 -80 -489 -173 -495 -181 -503 -185 -540
-268 -45 -100 26 -226 139 -247 24 -5 143 15 396 65 199 40 369 74 377 77 11
3 39 -34 93 -122 l78 -125 -118 -113 c-65 -61 -191 -181 -281 -266 l-163 -155
63 -21 c101 -34 168 -67 269 -131 131 -83 166 -100 230 -108 91 -11 153 8 286
87 284 170 478 222 735 199 67 -6 123 -10 125 -8 7 7 -214 282 -751 937 -237
289 -269 325 -311 348 -34 18 -96 29 -138 24z"/>
<path d="M3720 3576 c-389 -87 -523 -555 -235 -824 107 -101 212 -138 361
-129 86 5 104 10 179 47 145 72 239 199 267 358 43 252 -146 510 -405 552 -75
12 -96 11 -167 -4z"/>
<path d="M1513 2235 c-158 -28 -266 -79 -436 -204 -149 -109 -231 -157 -317
-187 -122 -44 -276 -27 -475 51 -133 52 -166 62 -229 74 l-49 9 34 -26 c19
-15 88 -79 155 -142 136 -130 217 -181 364 -232 90 -30 103 -32 240 -33 178 0
251 16 388 88 256 133 288 143 421 134 118 -8 195 -38 337 -134 239 -161 389
-214 609 -214 239 0 375 44 580 191 276 197 414 207 735 55 85 -40 187 -83
225 -95 90 -28 260 -38 358 -20 187 33 301 96 470 259 67 64 136 126 152 138
26 19 27 22 10 23 -34 0 -156 -37 -245 -75 -167 -70 -304 -91 -441 -65 -81 15
-190 71 -295 152 -241 184 -330 229 -521 257 -246 37 -434 -10 -712 -178 -139
-84 -176 -95 -321 -96 -144 0 -165 7 -331 112 -122 78 -159 96 -255 127 -147
46 -306 57 -451 31z"/>
</g>
</svg>
