<?xml version="1.0" standalone="no"?>
<!DOCTYPE svg PUBLIC "-//W3C//DTD SVG 20010904//EN"
 "http://www.w3.org/TR/2001/REC-SVG-20010904/DTD/svg10.dtd">
<svg version="1.0" xmlns="http://www.w3.org/2000/svg"
 width="512.000000pt" height="512.000000pt" viewBox="0 0 512.000000 512.000000"
 preserveAspectRatio="xMidYMid meet">

<g transform="translate(0.000000,512.000000) scale(0.100000,-0.100000)"
fill="#000000" stroke="none">
<path d="M545 4391 c-138 -63 -225 -300 -225 -616 0 -284 71 -514 186 -602
l37 -28 222 -3 221 -3 49 33 c72 49 134 173 160 321 l7 37 -81 0 c-80 0 -81 0
-87 -27 -13 -62 -49 -153 -70 -180 -21 -27 -23 -27 -42 -10 -29 27 -62 109
-84 212 -22 105 -27 340 -9 448 16 96 57 217 84 251 l23 29 22 -23 c40 -43 80
-177 97 -322 l7 -58 -71 0 c-63 0 -75 -3 -96 -25 -27 -26 -31 -51 -14 -88 19
-43 46 -47 290 -47 l231 0 -7 -32 c-4 -18 -29 -123 -55 -233 -75 -306 -109
-578 -131 -1041 -16 -355 1 -533 76 -794 32 -111 263 -667 306 -737 99 -159
330 -184 463 -49 l51 51 230 1 c300 1 485 28 762 109 353 104 759 305 1058
525 61 44 146 98 190 119 238 117 394 275 467 473 85 233 23 518 -154 703 -90
96 -184 165 -289 214 -119 56 -187 72 -330 78 -198 9 -356 -32 -512 -133 -85
-55 -199 -169 -244 -245 -51 -87 -53 -81 41 -106 107 -28 278 -98 311 -129 50
-46 22 -134 -44 -134 -15 0 -68 19 -117 41 -377 175 -750 107 -936 -169 l-35
-52 -191 287 c-105 159 -200 310 -211 336 -35 81 -51 161 -51 249 0 153 42
236 161 318 143 99 221 182 277 298 l26 52 187 0 187 0 12 -97 c14 -117 51
-249 87 -316 34 -62 102 -124 145 -132 18 -3 123 -5 234 -3 l201 3 36 28 c73
55 129 169 163 327 26 120 27 430 1 548 -35 161 -93 276 -165 327 l-44 30
-201 3 c-166 3 -208 0 -243 -13 -47 -18 -103 -73 -133 -134 -33 -63 -68 -199
-82 -310 l-12 -101 -181 2 -181 3 -35 155 c-45 194 -45 194 -82 236 -85 97
-192 101 -351 15 -87 -47 -150 -66 -282 -81 -116 -14 -159 -33 -210 -92 -33
-39 -87 -138 -114 -210 l-11 -28 -108 0 -109 0 -12 100 c-30 250 -115 418
-228 449 -21 6 -119 11 -218 11 -153 0 -186 -3 -220 -19z m3017 -221 c11 -25
29 -83 41 -130 28 -113 31 -394 5 -510 -20 -93 -53 -182 -77 -212 -16 -20 -21
-21 -36 -8 -46 38 -90 182 -106 347 -21 219 26 492 99 576 15 16 16 16 35 0
11 -10 28 -38 39 -63z"/>
<path d="M3452 3847 c-24 -25 -31 -102 -12 -137 12 -22 64 -42 88 -33 65 23
83 122 32 173 -28 28 -81 26 -108 -3z"/>
</g>
</svg>
