<?xml version="1.0" standalone="no"?>
<!DOCTYPE svg PUBLIC "-//W3C//DTD SVG 20010904//EN"
 "http://www.w3.org/TR/2001/REC-SVG-20010904/DTD/svg10.dtd">
<svg version="1.0" xmlns="http://www.w3.org/2000/svg"
 width="512.000000pt" height="512.000000pt" viewBox="0 0 512.000000 512.000000"
 preserveAspectRatio="xMidYMid meet">

<g transform="translate(0.000000,512.000000) scale(0.100000,-0.100000)"
fill="#000000" stroke="none">
<path d="M946 4624 c-70 -22 -149 -103 -170 -174 -9 -30 -16 -62 -16 -72 0
-17 -18 -18 -355 -18 l-356 0 -24 -25 c-33 -32 -33 -78 0 -110 l24 -25 456 0
455 0 0 -1460 0 -1460 -55 0 c-46 0 -60 -4 -80 -25 -33 -32 -33 -78 0 -110 24
-25 26 -25 215 -25 189 0 191 0 215 25 33 32 33 78 0 110 -20 21 -34 25 -80
25 l-55 0 0 1460 0 1460 280 0 280 0 0 -900 c0 -882 0 -900 -19 -900 -25 0
-61 -46 -61 -78 0 -16 14 -38 40 -62 l40 -37 0 -191 0 -192 -95 0 c-88 0 -98
-2 -120 -25 -33 -32 -33 -78 0 -110 l24 -25 336 0 335 0 0 -215 c0 -243 5
-265 66 -311 l37 -29 298 0 c285 0 299 1 325 21 68 50 69 53 72 305 l3 229
335 0 335 0 24 25 c33 32 33 78 0 110 -22 23 -32 25 -120 25 l-95 0 0 192 0
191 40 37 c26 24 40 46 40 62 0 32 -36 78 -61 78 -19 0 -19 18 -19 900 l0 900
320 0 320 0 0 -1460 0 -1460 -55 0 c-46 0 -60 -4 -80 -25 -33 -32 -33 -78 0
-110 24 -25 26 -25 215 -25 189 0 191 0 215 25 33 32 33 78 0 110 -20 21 -34
25 -80 25 l-55 0 0 1460 0 1460 415 0 416 0 24 25 c33 32 33 78 0 110 l-24 25
-314 0 -314 0 -6 49 c-10 86 -62 161 -142 204 -33 18 -57 22 -135 22 -78 0
-102 -4 -135 -22 -80 -43 -132 -118 -142 -204 l-6 -49 -1278 0 c-1230 0 -1279
1 -1279 18 0 97 -93 217 -190 246 -65 20 -120 19 -184 0z m175 -181 c15 -15
31 -40 34 -55 l7 -28 -122 0 -122 0 7 28 c7 31 40 70 70 83 36 16 96 3 126
-28z m3108 23 c28 -15 51 -53 51 -86 0 -19 -8 -20 -120 -20 -118 0 -120 0
-120 23 1 31 23 67 51 83 32 18 103 17 138 0z m-951 -1208 l-3 -941 -47 -29
-48 -30 -107 88 c-60 48 -130 107 -157 131 -26 24 -70 51 -96 60 l-48 17 24
29 c14 17 37 53 52 81 22 43 26 64 26 136 1 100 -23 159 -89 225 -65 66 -125
90 -225 90 -100 0 -160 -24 -225 -90 -66 -65 -89 -125 -90 -225 0 -73 4 -92
27 -136 15 -28 38 -64 52 -81 l24 -29 -47 -17 c-26 -9 -73 -39 -104 -66 -32
-28 -103 -87 -158 -131 l-99 -81 -48 29 -47 29 -3 941 -2 942 720 0 720 0 -2
-942z m-655 -312 c103 -43 128 -177 48 -257 -112 -113 -296 -12 -267 146 18
94 128 150 219 111z m134 -557 c40 -15 82 -57 104 -104 16 -35 19 -67 19 -242
l0 -203 -320 0 -320 0 0 200 c0 218 6 248 58 304 47 50 72 55 259 56 98 0 184
-5 200 -11z m-677 -389 l0 -160 -120 0 -120 0 0 145 0 145 48 -27 c57 -32 82
-28 142 22 23 19 44 35 46 35 2 0 4 -72 4 -160z m1028 113 c52 -40 72 -41 129
-8 l43 26 0 -146 0 -145 -120 0 -120 0 0 161 c0 125 3 159 13 153 6 -5 31 -23
55 -41z m-628 -633 l0 -200 -80 0 -80 0 0 200 0 200 80 0 80 0 0 -200z m320 0
l0 -200 -80 0 -80 0 0 200 0 200 80 0 80 0 0 -200z"/>
<path d="M275 1904 c-46 -23 -66 -45 -85 -89 -12 -25 -48 -253 -101 -625 -83
-584 -83 -585 -65 -623 10 -20 33 -47 50 -60 l31 -22 2455 0 2455 0 31 22 c17
13 40 40 50 60 18 38 18 39 -65 623 -46 322 -90 601 -98 620 -18 45 -40 68
-85 91 -32 17 -60 19 -218 19 -179 0 -181 0 -205 -25 -33 -32 -33 -78 0 -110
24 -25 27 -25 195 -25 93 0 170 -4 170 -8 0 -11 148 -1049 154 -1084 l6 -28
-2390 0 -2390 0 6 28 c6 35 154 1073 154 1084 0 4 95 8 210 8 211 0 211 0 235
25 16 15 25 36 25 55 0 19 -9 40 -25 55 l-24 25 -223 0 c-183 0 -228 -3 -253
-16z"/>
</g>
</svg>
